<!-- icon666.com - MILLIONS OF FREE VECTOR ICONS --><svg viewBox="0 0 512.00003 512" xmlns="http://www.w3.org/2000/svg"><path d="m503.464844 93.867188v256c0 18.851562-15.28125 34.132812-34.132813 34.132812h-426.664062c-18.851563 0-34.132813-15.28125-34.132813-34.132812v-256zm0 0" fill="#9d9d9d"></path><path d="m477.867188 93.867188v256c0 18.851562-15.28125 34.132812-34.132813 34.132812h-401.066406c-18.851563 0-34.132813-15.28125-34.132813-34.132812v-256zm0 0" fill="#ced7db"></path><path d="m503.464844 42.667969v68.265625h-494.929688v-68.265625c0-18.851563 15.28125-34.132813 34.132813-34.132813h426.664062c18.851563 0 34.132813 15.28125 34.132813 34.132813zm0 0" fill="#00828e"></path><path d="m477.867188 42.667969v68.265625h-469.332032v-68.265625c0-18.851563 15.28125-34.132813 34.132813-34.132813h401.066406c18.851563 0 34.132813 15.28125 34.132813 34.132813zm0 0" fill="#00bbd3" style="fill: rgb(24, 209, 0);"></path><path d="m76.800781 59.734375c0 9.425781-7.640625 17.066406-17.066406 17.066406s-17.066406-7.640625-17.066406-17.066406 7.640625-17.066406 17.066406-17.066406 17.066406 7.640625 17.066406 17.066406zm0 0" fill="#f34335" style="fill: rgb(32, 137, 11);"></path><path d="m145.066406 59.734375c0 9.425781-7.640625 17.066406-17.066406 17.066406s-17.066406-7.640625-17.066406-17.066406 7.640625-17.066406 17.066406-17.066406 17.066406 7.640625 17.066406 17.066406zm0 0" fill="#ffea3a"></path><path d="m213.332031 59.734375c0 9.425781-7.640625 17.066406-17.066406 17.066406s-17.066406-7.640625-17.066406-17.066406 7.640625-17.066406 17.066406-17.066406 17.066406 7.640625 17.066406 17.066406zm0 0" fill="#4cae50"></path><path d="m51.199219 153.601562h409.601562c4.710938 0 8.53125 3.820313 8.53125 8.53125v42.667969c0 4.710938-3.820312 8.53125-8.53125 8.53125h-409.601562c-4.710938 0-8.53125-3.820312-8.53125-8.53125v-42.667969c0-4.710937 3.820312-8.53125 8.53125-8.53125zm0 0" fill="#f47c00" style="fill: rgb(0, 216, 245);"></path><path d="m51.199219 153.601562h384c4.714843 0 8.535156 3.820313 8.535156 8.53125v42.667969c0 4.710938-3.820313 8.53125-8.535156 8.53125h-384c-4.710938 0-8.53125-3.820312-8.53125-8.53125v-42.667969c0-4.710937 3.820312-8.53125 8.53125-8.53125zm0 0" fill="#ff9701" style="fill: rgb(29, 135, 64);"></path><g fill="#c42828"><path d="m110.761719 464.980469 2.304687 4.183593-13.566406 4.519532c-1.671875.429687-3.441406-.117188-4.578125-1.417969-1.136719-1.296875-1.445313-3.125-.800781-4.722656.085937-.257813.171875-.429688.257812-.683594l11.433594-3.839844c1.910156-.652343 4.007812.179688 4.949219 1.960938zm0 0" fill="#c42828" style="fill: rgb(32, 83, 14);"></path><path d="m174.933594 427.433594h25.601562c-15.097656 22.511718-27.257812 46.859375-36.183594 72.449218-.414062 1.6875-1.832031 2.941407-3.558593 3.152344-1.726563.207032-3.402344-.671875-4.207031-2.214844l-10.835938-19.199218c7.996094-18.941406 17.769531-37.085938 29.183594-54.1875zm0 0" fill="#c42828" style="fill: rgb(32, 83, 14);"></path><path d="m413.011719 474.539062-20.308594-5.121093c-.015625-.375-.070313-.746094-.167969-1.109375-10.960937-31.691406-26.824218-61.464844-47.019531-88.234375h25.597656c20.195313 26.769531 36.0625 56.542969 47.019531 88.234375.601563 1.558594.316407 3.316406-.742187 4.609375-1.0625 1.289062-2.734375 1.90625-4.378906 1.621093zm0 0" fill="#c42828" style="fill: rgb(32, 83, 14);"></path></g><path d="m392.703125 469.417969-12.371094-3.15625c-1.804687-.464844-3.695312.339843-4.609375 1.960937l-1.792968 2.902344-18.429688 30.207031c-.84375 1.480469-2.5 2.300781-4.1875 2.074219-1.683594-.226562-3.066406-1.449219-3.492188-3.097656-2.050781-6.058594-4.269531-11.859375-6.65625-17.492188-8.085937-19.378906-18.03125-37.925781-29.699218-55.382812h-136.53125c-11.414063 17.101562-21.1875 35.246094-29.183594 54.1875l-9.386719-16.640625c-.945312-1.78125-3.042969-2.613281-4.949219-1.960938l-18.347656 6.144531-2.304687-4.183593c-.941407-1.78125-3.039063-2.613281-4.949219-1.960938l-11.433594 3.839844c10.953125-31.144531 26.640625-60.417969 46.507813-86.785156h204.628906c20.195313 26.769531 36.058594 56.542969 47.019531 88.234375.097656.363281.152344.734375.167969 1.109375zm0 0" fill="#f34335" style="fill: rgb(32, 137, 11);"></path><path d="m392.703125 469.417969c.238281 1.449219-.25 2.925781-1.304687 3.945312-1.054688 1.019531-2.542969 1.460938-3.984376 1.175781l-13.484374-3.414062 1.792968-2.902344c.914063-1.621094 2.804688-2.425781 4.609375-1.960937zm0 0" fill="#c42828" style="fill: rgb(32, 83, 14);"></path><path d="m170.753906 424.449219c-2.769531.109375-5.53125-.355469-8.109375-1.367188 2.769531-.144531 5.539063.320313 8.109375 1.367188zm0 0" fill="#e64c3c"></path><path d="m170.753906 172.886719c-2.570312 1.042969-5.339844 1.511719-8.109375 1.363281 2.578125-1.011719 5.339844-1.476562 8.109375-1.363281zm0 0" fill="#e64c3c"></path><path d="m315.648438 424.449219c-.171876 0-.257813.085937-.425782.167969-9.644531 4.78125-14.335937 24.917968-25.003906 27.394531-6.328125.128906-12.488281-2.058594-17.324219-6.144531 5.632813-7.082032 9.984375-17.921876 16.726563-21.25 6.742187-3.328126 17.324218-.253907 26.027344-.167969zm0 0" fill="#c42828" style="fill: rgb(32, 83, 14);"></path><path d="m315.648438 172.886719c-8.703126.082031-19.285157 3.15625-26.027344-.171875-6.742188-3.328125-11.09375-14.164063-16.726563-21.25 4.835938-4.085938 10.996094-6.269532 17.324219-6.140625 10.667969 2.472656 15.359375 22.613281 25.003906 27.390625.167969.085937.253906.171875.425782.171875zm0 0" fill="#c42828" style="fill: rgb(32, 83, 14);"></path><path d="m394.410156 366.933594c-4.777344 10.070312-24.917968 10.238281-31.65625 18.859375-6.742187 8.617187-2.476562 28.925781-11.011718 35.839843-6.398438 5.203126-18.257813 1.535157-27.988282 1.449219.84375-.398437 1.644532-.886719 2.390625-1.449219 8.53125-6.914062 4.265625-27.136718 11.007813-35.839843 6.742187-8.703125 26.878906-8.789063 31.660156-18.859375 4.691406-9.898438-7.683594-26.199219-5.292969-37.121094 2.390625-10.664062 20.480469-19.796875 20.480469-31.144531 0-11.351563-18.089844-20.480469-20.480469-31.148438-2.390625-10.921875 9.984375-27.222656 5.292969-37.121093-4.78125-10.066407-24.917969-10.238282-31.660156-18.855469-6.742188-8.621094-2.476563-28.929688-11.007813-35.839844-.746093-.566406-1.546875-1.050781-2.390625-1.453125 9.730469-.085938 21.589844-3.753906 27.988282 1.453125 8.535156 6.910156 4.269531 27.132813 11.011718 35.839844 6.738282 8.703125 26.878906 8.789062 31.65625 18.855469 4.695313 9.898437-7.679687 26.199218-5.289062 37.121093 2.386718 10.667969 20.480468 19.796875 20.480468 31.148438 0 11.347656-18.09375 20.480469-20.480468 31.144531-2.390625 10.921875 9.984375 27.222656 5.289062 37.121094zm0 0" fill="#c42828" style="fill: rgb(32, 83, 14);"></path><path d="m368.8125 366.933594c-4.78125 10.070312-24.917969 10.238281-31.660156 18.859375-6.742188 8.617187-2.476563 28.925781-11.007813 35.839843-.746093.5625-1.546875 1.050782-2.390625 1.449219-2.769531-.144531-5.535156.320313-8.105468 1.367188-8.703126-.085938-19.285157-3.160157-26.027344.167969-6.742188 3.328124-11.09375 14.167968-16.726563 21.25-4.882812-3.914063-10.707031-6.476563-16.894531-7.425782-4.617188.476563-9.03125 2.152344-12.800781 4.867188-7.421875 4.433594-14.847657 10.238281-21.417969 8.703125-3.382812-1.039063-6.304688-3.207031-8.277344-6.144531-5.632812-7.082032-9.984375-17.921876-16.726562-21.25-6.738282-3.328126-17.320313-.253907-26.023438-.167969-2.570312-1.046875-5.339844-1.511719-8.109375-1.367188-.84375-.398437-1.644531-.886719-2.386719-1.449219-8.535156-6.914062-4.269531-27.136718-11.011718-35.839843-6.738282-8.703125-26.878906-8.789063-31.65625-18.859375-4.695313-9.898438 7.679687-26.199219 5.289062-37.121094-2.386718-10.664062-20.480468-19.796875-20.480468-31.144531 0-11.351563 18.09375-20.480469 20.480468-31.148438 2.390625-10.921875-9.984375-27.222656-5.289062-37.121093 4.777344-10.066407 24.917968-10.238282 31.65625-18.855469 6.742187-8.621094 2.476562-28.929688 11.011718-35.839844.742188-.566406 1.542969-1.050781 2.386719-1.453125 2.769531.148438 5.539063-.320312 8.109375-1.363281 8.703125.082031 19.285156 3.15625 26.023438-.171875 6.742187-3.328125 11.09375-14.164063 16.726562-21.25 1.972656-2.933594 4.894532-5.105469 8.277344-6.140625 6.570312-1.539063 13.996094 4.265625 21.417969 8.703125 3.769531 2.710937 8.183593 4.386718 12.800781 4.863281 6.1875-.949219 12.011719-3.507813 16.894531-7.425781 5.632813 7.085937 9.984375 17.921875 16.726563 21.25 6.742187 3.328125 17.324218.253906 26.027344.171875 2.570312 1.042969 5.335937 1.511719 8.105468 1.363281.84375.402344 1.644532.886719 2.390625 1.453125 8.53125 6.910156 4.265625 27.132813 11.007813 35.839844 6.742187 8.703125 26.878906 8.789062 31.660156 18.855469 4.691406 9.898437-7.683594 26.199218-5.292969 37.121093 2.390625 10.667969 20.480469 19.796875 20.480469 31.148438 0 11.347656-18.089844 20.480469-20.480469 31.144531-2.390625 10.921875 9.984375 27.222656 5.292969 37.121094zm0 0" fill="#f34335" style="fill: rgb(32, 137, 11);"></path><path d="m323.753906 174.25c-2.769531.148438-5.535156-.320312-8.105468-1.363281 2.765624-.113281 5.527343.351562 8.105468 1.363281zm0 0" fill="#e64c3c"></path><path d="m323.753906 423.082031c-2.578125 1.011719-5.339844 1.476563-8.105468 1.367188 2.570312-1.046875 5.335937-1.511719 8.105468-1.367188zm0 0" fill="#e64c3c"></path><path d="m349.867188 298.667969c-.035157 51.828125-42.039063 93.832031-93.867188 93.867187-4.285156.03125-8.566406-.28125-12.800781-.941406-46.441407-6.371094-81.050781-46.050781-81.050781-92.925781 0-46.878907 34.609374-86.558594 81.050781-92.929688 4.234375-.65625 8.515625-.972656 12.800781-.9375 51.828125.03125 93.832031 42.039063 93.867188 93.867188zm0 0" fill="#c42828" style="fill: rgb(32, 83, 14);"></path><path d="m324.265625 298.667969c0-51.324219-36.292969-92.929688-81.066406-92.929688-44.769531 0-81.066407 41.605469-81.066407 92.929688 0 51.320312 36.296876 92.925781 81.066407 92.925781 44.773437 0 81.066406-41.605469 81.066406-92.925781zm0 0" fill="#f34335" style="fill: rgb(32, 137, 11);"></path><path d="m264.535156 238.933594c0-4.714844-3.824218-8.535156-8.535156-8.535156-37.683594.042968-68.222656 30.582031-68.265625 68.269531 0 4.710937 3.820313 8.53125 8.53125 8.53125 4.714844 0 8.535156-3.820313 8.535156-8.53125.027344-28.265625 22.933594-51.171875 51.199219-51.203125 4.710938 0 8.535156-3.820313 8.535156-8.53125zm0 0" fill="#fb7b76" style="fill: rgb(55, 90, 12);"></path><path d="m315.734375 290.132812c-4.714844 0-8.535156 3.820313-8.535156 8.535157-.027344 28.265625-22.933594 51.171875-51.199219 51.199219-4.710938 0-8.535156 3.820312-8.535156 8.53125 0 4.714843 3.824218 8.535156 8.535156 8.535156 37.683594-.042969 68.222656-30.582032 68.265625-68.265625 0-4.714844-3.820313-8.535157-8.53125-8.535157zm0 0" fill="#fb7b76" style="fill: rgb(55, 90, 12);"></path><path d="m59.734375 34.132812c-14.140625 0-25.601563 11.460938-25.601563 25.601563 0 14.136719 11.460938 25.597656 25.601563 25.597656 14.136719 0 25.597656-11.460937 25.597656-25.597656 0-14.140625-11.460937-25.601563-25.597656-25.601563zm0 34.132813c-4.714844 0-8.535156-3.820313-8.535156-8.53125 0-4.714844 3.820312-8.535156 8.535156-8.535156 4.710937 0 8.53125 3.820312 8.53125 8.535156 0 4.710937-3.820313 8.53125-8.53125 8.53125zm0 0" fill="#000000"></path><path d="m128 34.132812c-14.136719 0-25.601562 11.460938-25.601562 25.601563 0 14.136719 11.464843 25.597656 25.601562 25.597656s25.601562-11.460937 25.601562-25.597656c0-14.140625-11.464843-25.601563-25.601562-25.601563zm0 34.132813c-4.710938 0-8.535156-3.820313-8.535156-8.53125 0-4.714844 3.824218-8.535156 8.535156-8.535156s8.535156 3.820312 8.535156 8.535156c0 4.710937-3.824218 8.53125-8.535156 8.53125zm0 0" fill="#000000"></path><path d="m196.265625 34.132812c-14.136719 0-25.597656 11.460938-25.597656 25.601563 0 14.136719 11.460937 25.597656 25.597656 25.597656 14.140625 0 25.601563-11.460937 25.601563-25.597656 0-14.140625-11.460938-25.601563-25.601563-25.601563zm0 34.132813c-4.710937 0-8.53125-3.820313-8.53125-8.53125 0-4.714844 3.820313-8.535156 8.53125-8.535156 4.714844 0 8.535156 3.820312 8.535156 8.535156 0 4.710937-3.820312 8.53125-8.535156 8.53125zm0 0" fill="#000000"></path><path d="m366.933594 51.199219h-85.332032c-4.714843 0-8.535156 3.820312-8.535156 8.535156 0 4.710937 3.820313 8.53125 8.535156 8.53125h85.332032c4.710937 0 8.53125-3.820313 8.53125-8.53125 0-4.714844-3.820313-8.535156-8.53125-8.535156zm0 0" fill="#000000"></path><path d="m460.800781 51.199219h-59.734375c-4.710937 0-8.53125 3.820312-8.53125 8.535156 0 4.710937 3.820313 8.53125 8.53125 8.53125h59.734375c4.710938 0 8.53125-3.820313 8.53125-8.53125 0-4.714844-3.820312-8.535156-8.53125-8.535156zm0 0" fill="#000000"></path><path d="m469.332031 0h-426.664062c-23.554688.0273438-42.6406252 19.113281-42.667969 42.667969v307.199219c.0273438 23.550781 19.113281 42.636718 42.667969 42.667968h42.664062c4.714844 0 8.535157-3.824218 8.535157-8.535156s-3.820313-8.535156-8.535157-8.535156h-42.664062c-14.140625 0-25.601563-11.460938-25.601563-25.597656v-230.402344h477.867188v230.402344c0 14.136718-11.460938 25.597656-25.601563 25.597656h-42.664062c-4.714844 0-8.535157 3.824218-8.535157 8.535156s3.820313 8.535156 8.535157 8.535156h42.664062c23.554688-.03125 42.640625-19.117187 42.667969-42.667968v-307.199219c-.027344-23.554688-19.113281-42.6406252-42.667969-42.667969zm-452.265625 102.398438v-59.730469c0-14.140625 11.460938-25.601563 25.601563-25.601563h426.664062c14.140625 0 25.601563 11.460938 25.601563 25.601563v59.730469zm0 0" fill="#000000"></path><path d="m256 401.066406c56.554688 0 102.398438-45.847656 102.398438-102.398437 0-56.554688-45.84375-102.402344-102.398438-102.402344s-102.398438 45.847656-102.398438 102.402344c.0625 56.523437 45.871094 102.332031 102.398438 102.398437zm0-187.734375c47.128906 0 85.332031 38.207031 85.332031 85.335938 0 47.128906-38.203125 85.332031-85.332031 85.332031s-85.332031-38.203125-85.332031-85.332031c.050781-47.109375 38.226562-85.28125 85.332031-85.335938zm0 0" fill="#000000"></path><path d="m204.800781 298.667969c.027344-28.265625 22.933594-51.171875 51.199219-51.203125 4.710938 0 8.535156-3.820313 8.535156-8.53125 0-4.714844-3.824218-8.535156-8.535156-8.535156-37.683594.042968-68.222656 30.582031-68.265625 68.269531 0 4.710937 3.820313 8.53125 8.53125 8.53125 4.714844 0 8.535156-3.820313 8.535156-8.53125zm0 0" fill="#000000"></path><path d="m247.464844 358.398438c0 4.714843 3.824218 8.535156 8.535156 8.535156 37.683594-.042969 68.222656-30.582032 68.265625-68.265625 0-4.714844-3.820313-8.535157-8.53125-8.535157-4.714844 0-8.535156 3.820313-8.535156 8.535157-.03125 28.261719-22.9375 51.164062-51.199219 51.199219-4.710938 0-8.535156 3.820312-8.535156 8.53125zm0 0" fill="#000000"></path><path d="m89.378906 478.789062c3.355469 3.339844 8.316406 4.492188 12.800782 2.96875l28.464843-9.523437 18.441407 32.675781c2.175781 4.105469 6.445312 6.675782 11.09375 6.671875.367187 0 .742187 0 1.117187-.050781 5.128906-.519531 9.476563-4.003906 11.09375-8.902344 7.3125-20.960937 16.910156-41.050781 28.621094-59.910156 3.679687 8.140625 10.460937 14.472656 18.832031 17.585938 1.371094.320312 2.773438.480468 4.183594.476562 7.367187-.777344 14.371094-3.597656 20.222656-8.140625 3.496094-2.660156 7.492188-4.589844 11.75-5.671875 4.246094 1.085938 8.230469 3.015625 11.714844 5.671875 6.757812 5.757813 15.5625 8.527344 24.398437 7.679687 8.367188-3.109374 15.144531-9.433593 18.824219-17.566406 11.769531 18.945313 21.414062 39.132813 28.765625 60.191406 1.492187 4.855469 5.714844 8.367188 10.761719 8.953126.488281.054687.980468.082031 1.476562.085937 4.457032-.011719 8.578125-2.367187 10.84375-6.207031l18.59375-30.46875 29.507813 7.472656c4.53125 1.144531 9.324219-.300781 12.46875-3.753906 3.355469-3.625 4.453125-8.800782 2.859375-13.472656-9.960938-29.023438-23.988282-56.480469-41.667969-81.554688 7.40625-2.011719 13.722656-6.859375 17.585937-13.492188 2.726563-8.53125 2.058594-17.785156-1.867187-25.839843-1.800781-4.128907-2.753906-8.574219-2.800781-13.078125 1.917968-3.792969 4.546875-7.183594 7.742187-9.984375 7.136719-5.664063 11.777344-13.898438 12.925781-22.9375-1.125-9.078125-5.765624-17.351563-12.925781-23.042969-3.199219-2.796875-5.828125-6.1875-7.742187-9.980469.046875-4.503906 1-8.949219 2.800781-13.074219 3.929687-8.050781 4.597656-17.308593 1.867187-25.839843-4.839843-7.609375-12.519531-12.972657-21.332031-14.890625-4.109375-1.105469-7.960937-3.015625-11.324219-5.625-1.796874-4.035156-2.785156-8.382813-2.917968-12.796875.152344-9.03125-3.214844-17.769531-9.386719-24.363281-7.601563-4.726563-16.792969-6.171876-25.480469-4.011719-4.183594.832031-8.488281.8125-12.664062-.058594-3.21875-2.804687-5.871094-6.199219-7.808594-10.003906-3.707031-8.316407-10.585938-14.808594-19.105469-18.027344-8.839843-.839844-17.640625 1.929687-24.40625 7.679687-3.480469 2.664063-7.460937 4.597657-11.707031 5.691407-4.246094-1.085938-8.230469-3.015625-11.714844-5.675781-6.761718-5.75-15.5625-8.519532-24.398437-7.679688-8.523438 3.21875-15.40625 9.710938-19.113281 18.03125-1.9375 3.800781-4.582032 7.199219-7.800782 10-4.175781.867188-8.480468.886719-12.664062.058594-8.683594-2.160156-17.875-.714844-25.480469 4.003906-6.171875 6.59375-9.539063 15.332031-9.386719 24.363281-.132812 4.414063-1.125 8.761719-2.917968 12.800781-3.367188 2.609376-7.21875 4.519532-11.332032 5.621094-8.8125 1.921875-16.492187 7.28125-21.332031 14.890625-2.726563 8.535157-2.058594 17.792969 1.867187 25.847657 1.800782 4.125 2.753907 8.574218 2.800782 13.074218-1.917969 3.789063-4.542969 7.179688-7.742188 9.976563-7.152344 5.691406-11.792968 13.957031-12.917968 23.03125 1.132812 9.058593 5.777343 17.3125 12.925781 22.988281 3.199219 2.800781 5.828125 6.1875 7.742187 9.984375-.046875 4.5-1 8.945313-2.800781 13.070313-3.929687 8.050781-4.597656 17.308593-1.867187 25.839843 3.875 6.621094 10.199218 11.449219 17.605468 13.449219-17.503906 24.898438-31.457031 52.109375-41.464844 80.851562-1.601562 4.910157-.296874 10.304688 3.371094 13.9375zm293.296875-20.753906c-5.492187-1.5-11.316406.839844-14.242187 5.726563l-15.527344 25.429687c-7.660156-20.085937-17.285156-39.363281-28.734375-57.558594 2.390625.050782 5.121094.324219 7.527344.582032 8.683593 2.152344 17.867187.710937 25.472656-4.003906 6.171875-6.59375 9.535156-15.332032 9.386719-24.363282.226562-4.128906 1.089844-8.199218 2.558594-12.066406 15.96875 22.410156 28.933593 46.8125 38.570312 72.585938zm-257.371093-94.78125c-.167969-4.53125.730468-9.042968 2.628906-13.164062 3.070312-6.964844 4.195312-14.632813 3.257812-22.1875-2.300781-7.039063-6.492187-13.308594-12.117187-18.125-3.625-3.746094-8.140625-8.429688-8.140625-11.109375 0-2.679688 4.515625-7.390625 8.148437-11.164063 5.621094-4.816406 9.8125-11.085937 12.109375-18.125.9375-7.554687-.1875-15.21875-3.257812-22.183594-1.898438-4.125-2.796875-8.632812-2.621094-13.167968 1.050781-2.238282 7.226562-4.488282 11.734375-6.136719 7.21875-1.894531 13.773437-5.75 18.933594-11.144531 4.042969-6.394532 6.261719-13.769532 6.417969-21.332032.535156-4.617187 1.355468-11.605468 3.234374-13.132812 1.875-1.527344 8.4375-.71875 12.867188-.257812 7.359375 1.507812 14.996094.917968 22.035156-1.707032 6.324219-3.957031 11.421875-9.597656 14.726563-16.289062 2.449219-3.933594 6.152343-9.882813 8.535156-10.417969 2.054687-.496094 7.898437 3.242187 11.40625 5.460937 6.027344 4.652344 13.226563 7.53125 20.796875 8.320313 7.585938-.78125 14.800781-3.660156 20.839844-8.320313 3.515625-2.21875 9.386718-5.972656 11.417968-5.460937 2.335938.535156 6.03125 6.484375 8.480469 10.425781 3.3125 6.683594 8.410157 12.320313 14.726563 16.28125 7.039062 2.625 14.675781 3.214844 22.035156 1.707032 4.429688-.46875 11.09375-1.183594 12.867188.257812 1.878906 1.527344 2.699218 8.53125 3.234374 13.125.15625 7.5625 2.375 14.9375 6.417969 21.332031 5.15625 5.398438 11.707031 9.261719 18.925781 11.160157 4.515626 1.648437 10.691407 3.902343 11.742188 6.136718.167969 4.53125-.734375 9.039063-2.628906 13.160156-3.066406 6.964844-4.195313 14.628907-3.257813 22.183594 2.296875 7.042969 6.488281 13.3125 12.117188 18.125 3.625 3.765625 8.140625 8.449219 8.140625 11.152344 0 2.707031-4.515625 7.382812-8.140625 11.144531-5.625 4.820313-9.816407 11.09375-12.117188 18.136719-.9375 7.554688.1875 15.21875 3.257813 22.183594 1.898437 4.121094 2.796875 8.632812 2.621094 13.167968-1.050782 2.234376-7.226563 4.488282-11.734376 6.144532-7.21875 1.894531-13.773437 5.753906-18.925781 11.152344-4.039062 6.394531-6.257812 13.773437-6.417969 21.335937-.535156 4.613281-1.355468 11.601563-3.234374 13.132813-1.875 1.527343-8.429688.722656-12.859376.253906-7.363281-1.5-14.996093-.910156-22.042968 1.707031-6.320313 3.964844-11.417969 9.597656-14.734375 16.28125-2.441407 3.941406-6.144531 9.890625-8.484375 10.429687-2.039063.5-7.902344-3.234374-11.40625-5.464843-6.03125-4.671875-13.25-7.570313-20.839844-8.359375-7.585938.777344-14.800781 3.660156-20.839844 8.320312-3.515625 2.226563-9.386718 5.972656-11.417968 5.460938-2.335938-.539063-6.03125-6.488282-8.480469-10.429688-3.3125-6.683594-8.410157-12.320312-14.726563-16.28125-3.808594-1.738281-7.96875-2.570312-12.152344-2.433594-3.304687.058594-6.601562.292969-9.882812.703126-4.429688.46875-11.09375 1.183593-12.867188-.257813-1.777343-1.441406-2.699218-8.53125-3.234374-13.132813-.15625-7.5625-2.375-14.941406-6.417969-21.332031-5.15625-5.398437-11.707031-9.261719-18.925781-11.152343-4.523438-1.582032-10.703126-3.875-11.75-6.113282zm17.558593 28.519532c1.472657 3.867187 2.335938 7.9375 2.5625 12.066406-.152343 9.03125 3.214844 17.769531 9.386719 24.363281 7.605469 4.71875 16.792969 6.160156 25.480469 4 2.414062-.253906 5.121093-.535156 7.515625-.578125-11.308594 17.957031-20.824219 36.980469-28.414063 56.796875l-15.632812-27.699219c-2.953125-5.324218-9.292969-7.777344-15.0625-5.820312l-23.894531 7.980468c9.578124-25.242187 22.371093-49.140624 38.058593-71.109374zm0 0" fill="#000000"></path><path d="m128 162.132812c4.710938 0 8.535156-3.820312 8.535156-8.53125 0-4.714843-3.824218-8.535156-8.535156-8.535156h-76.800781c-9.425781 0-17.066407 7.640625-17.066407 17.066406v42.667969c0 9.425781 7.640626 17.066407 17.066407 17.066407h34.132812c4.714844 0 8.535157-3.820313 8.535157-8.535157 0-4.710937-3.820313-8.53125-8.535157-8.53125h-34.132812v-42.667969zm0 0" fill="#000000"></path><path d="m477.867188 162.132812c0-9.425781-7.640626-17.066406-17.066407-17.066406h-76.800781c-4.710938 0-8.535156 3.820313-8.535156 8.535156 0 4.710938 3.824218 8.53125 8.535156 8.53125h76.800781v42.667969h-34.132812c-4.714844 0-8.535157 3.820313-8.535157 8.53125 0 4.714844 3.820313 8.535157 8.535157 8.535157h34.132812c9.425781 0 17.066407-7.640626 17.066407-17.066407zm0 0" fill="#000000"></path><path d="m42.667969 307.199219h25.597656c4.714844 0 8.535156-3.820313 8.535156-8.53125 0-4.714844-3.820312-8.535157-8.535156-8.535157h-25.597656c-4.714844 0-8.535157 3.820313-8.535157 8.535157 0 4.710937 3.820313 8.53125 8.535157 8.53125zm0 0" fill="#000000"></path><path d="m93.867188 264.535156c0-4.714844-3.820313-8.535156-8.535157-8.535156h-42.664062c-4.714844 0-8.535157 3.820312-8.535157 8.535156 0 4.710938 3.820313 8.53125 8.535157 8.53125h42.664062c4.714844 0 8.535157-3.820312 8.535157-8.53125zm0 0" fill="#000000"></path><path d="m42.667969 341.332031h34.132812c4.710938 0 8.53125-3.820312 8.53125-8.53125 0-4.714843-3.820312-8.535156-8.53125-8.535156h-34.132812c-4.714844 0-8.535157 3.820313-8.535157 8.535156 0 4.710938 3.820313 8.53125 8.535157 8.53125zm0 0" fill="#000000"></path><path d="m469.332031 290.132812h-25.597656c-4.714844 0-8.535156 3.820313-8.535156 8.535157 0 4.710937 3.820312 8.53125 8.535156 8.53125h25.597656c4.714844 0 8.535157-3.820313 8.535157-8.53125 0-4.714844-3.820313-8.535157-8.535157-8.535157zm0 0" fill="#000000"></path><path d="m469.332031 256h-42.664062c-4.714844 0-8.535157 3.820312-8.535157 8.535156 0 4.710938 3.820313 8.53125 8.535157 8.53125h42.664062c4.714844 0 8.535157-3.820312 8.535157-8.53125 0-4.714844-3.820313-8.535156-8.535157-8.535156zm0 0" fill="#000000"></path><path d="m469.332031 324.265625h-34.132812c-4.710938 0-8.53125 3.820313-8.53125 8.535156 0 4.710938 3.820312 8.53125 8.53125 8.53125h34.132812c4.714844 0 8.535157-3.820312 8.535157-8.53125 0-4.714843-3.820313-8.535156-8.535157-8.535156zm0 0" fill="#000000"></path></svg>