<!-- icon666.com - MILLIONS OF FREE VECTOR ICONS --><svg id="Capa_1" enable-background="new 0 0 512 512" viewBox="0 0 512 512" xmlns="http://www.w3.org/2000/svg"><g><g clip-rule="evenodd" fill-rule="evenodd"><path d="m134.165 187.272 306.372-176.883c2.778-1.616 6.351-.652 7.938 2.126l15.647 27.071c1.587 2.778.623 6.35-2.127 7.965l-306.371 176.884c-2.778 1.588-6.35.624-7.965-2.155l-15.62-27.071c-1.615-2.749-.651-6.349 2.126-7.937z" fill="#ffe07d"></path><path d="m423.728 20.083 16.81-9.695c2.778-1.616 6.351-.652 7.938 2.126l15.647 27.071c1.587 2.778.623 6.35-2.127 7.965l-306.372 176.885c-2.778 1.588-6.35.624-7.965-2.155l-4.366-7.568 289.563-167.161c2.777-1.615 3.74-5.187 2.125-7.965z" fill="#ffc269"></path><path d="m152.052 156.573 45.242-26.136c3.26-1.899 6.378-.623 7.965 2.126l27.355 47.395c19.049 32.996 62.675 24.35 82.063 17.434.113-.057.228-.086.312-.114 5.697-2.211 6.831.425 8.248 2.891l15.308 26.476c2.069 3.629 1.077 6.095-2.154 7.966l-109.504 63.213-76.99-133.315c-1.813-3.174-.849-6.207 2.155-7.936z" fill="#407093"></path><path d="m180.513 140.132 16.781-9.695c3.26-1.899 6.378-.623 7.965 2.126l27.355 47.395c7.852 13.578 19.842 20.098 32.627 22.592-21.09 3.374-47.906 1.39-61.739-22.592z" fill="#365e7d"></path><path d="m317.909 196.486c3.231-.369 4.196 1.729 5.329 3.685l15.308 26.476c2.069 3.629 1.077 6.095-2.154 7.966l-109.504 63.213-21.118-36.596z" fill="#f4fbff"></path><path d="m317.909 196.486c3.231-.369 4.196 1.729 5.329 3.685l15.308 26.476c2.069 3.629 1.077 6.095-2.154 7.966l-109.504 63.213-7.257-12.614 87.648-50.599c3.232-1.871 4.225-4.337 2.127-7.966l-10.942-18.935z" fill="#e4f6ff"></path><path d="m373.582 393.921c-6.321-31.38-9.637-67.579-10.232-105.251-.085-5.244-1.983-7.682-7.371-7.597h-199.958c-4.848.113-7.285 2.749-7.342 7.568-.737 46.318-5.585 90.426-15.052 126.029-1.446 5.471-3.544 7.371-9.355 7.371h-23.698c-17.944 0-32.655 14.684-32.655 32.655 0 2.465.283 4.96.85 7.37l190.378 13.407 204.438-13.407c0-33.393-27.327-60.719-60.748-60.719h-20.409c-4.791-.254-7.91-2.636-8.846-7.426z" fill="#bf8e5e"></path><path d="m28.716 504.474h454.598c11.65 0 21.203-9.524 21.203-21.204 0-11.65-9.553-21.203-21.203-21.203h-454.598c-11.679 0-21.204 9.553-21.204 21.203 0 11.679 9.525 21.204 21.204 21.204z" fill="#95d6a4"></path><path d="m454.2 504.474h29.113c11.65 0 21.203-9.524 21.203-21.204 0-11.65-9.553-21.203-21.203-21.203h-29.113c11.651 0 21.176 9.553 21.176 21.203 0 11.679-9.524 21.204-21.176 21.204z" fill="#78c2a4"></path><path d="m373.582 393.921c-6.321-31.38-9.637-67.579-10.232-105.251-.085-5.244-1.983-7.682-7.371-7.597h-28.516c4.903.085 6.689 2.551 6.774 7.597.595 37.673 3.912 73.872 10.204 105.251.965 4.79 4.083 7.172 8.873 7.427h20.409c33.422 0 60.749 27.326 60.749 60.719h29.111c0-33.393-27.327-60.719-60.748-60.719h-20.409c-4.789-.255-7.908-2.637-8.844-7.427z" fill="#a87547"></path></g><path d="m358.927 511.985c-4.139 0-7.512-3.373-7.512-7.512s3.373-7.484 7.512-7.484h124.387c3.74 0 7.171-1.559 9.666-4.053 2.494-2.467 4.025-5.896 4.025-9.666 0-3.742-1.531-7.172-4.025-9.667-2.495-2.495-5.926-4.025-9.666-4.025h-19.729-434.869c-3.771 0-7.201 1.53-9.695 4.025-2.466 2.495-4.025 5.925-4.025 9.667 0 3.77 1.559 7.2 4.025 9.666 2.495 2.494 5.925 4.053 9.695 4.053h296.224c4.139 0 7.511 3.345 7.511 7.484s-3.372 7.512-7.511 7.512h-296.224c-7.909 0-15.081-3.232-20.297-8.419-5.187-5.215-8.419-12.388-8.419-20.296 0-7.881 3.232-15.081 8.419-20.268 5.216-5.188 12.388-8.419 20.297-8.419h31.72c.028-10.999 4.535-21.005 11.792-28.262 7.257-7.285 17.292-11.793 28.346-11.793h25.342c4.649-17.122 8.221-36.369 10.744-57.005 2.92-24.01 4.762-49.664 4.621-75.828-.029-4.394 3.061-8.107 7.455-8.107h55.503l-29.708-51.45-20.211 11.679c-3.742 2.154-8.278.567-10.432-3.147l-21.231-36.766c-2.069-3.571-.822-8.135 2.75-10.205l20.211-11.679-5.102-8.788c-2.07-3.601-.851-8.164 2.721-10.233l55.362-31.947c3.571-2.069 8.164-.85 10.233 2.721l5.074 8.816 96.04-55.418c3.571-2.07 8.135-.822 10.177 2.75 2.068 3.571.821 8.135-2.751 10.175l-95.981 55.447 13.975 24.208 221.471-127.869-13.975-24.208-96.01 55.446c-3.601 2.07-8.164.851-10.233-2.72-2.069-3.572-.851-8.164 2.722-10.234l102.474-59.16c3.741-2.183 8.306-.595 10.459 3.146l21.232 36.766c2.041 3.572.821 8.136-2.75 10.177l-227.342 131.246c6.605 7.654 15.336 11.508 24.435 13.096 19.616 3.402 41.019-3.316 49.408-7.144 3.629-1.644 7.853-.142 9.695 3.317l20.978 36.34c2.153 3.742.595 8.277-3.147 10.432l-60.946 35.207h79.429c4.109 0 7.454 3.345 7.483 7.456.028 7.256.171 14.542.426 21.883.255 6.889.595 13.947 1.077 21.204.255 4.11-2.863 7.653-7.001 7.937-4.111.255-7.683-2.892-7.938-7.002-.454-6.888-.794-14.116-1.077-21.685-.17-4.848-.284-9.808-.369-14.797h-26.787v22.507c0 4.138-3.373 7.483-7.512 7.483-4.14 0-7.483-3.345-7.483-7.483v-22.507h-103.836v34.895c0 4.139-3.345 7.512-7.484 7.512-4.138 0-7.512-3.373-7.512-7.512v-34.895h-11.791v18.142c0 4.139-3.345 7.483-7.484 7.483s-7.512-3.344-7.512-7.483v-18.142h-12.331c-.369 24.576-1.871 48.444-4.593 70.697-2.891 23.584-7.115 45.553-12.813 64.857-.935 3.175-3.855 5.386-7.171 5.386h-30.983c-6.916 0-13.181 2.834-17.745 7.398-4.535 4.535-7.37 10.799-7.398 17.66h67.352l7.994-25.994c1.219-3.969 5.415-6.18 9.355-4.961s6.151 5.387 4.933 9.354l-6.633 21.601h20.381c2.807-8.589 8.476-28.064 12.473-55.191.595-4.081 4.393-6.917 8.476-6.321 4.11.596 6.945 4.394 6.35 8.504-3.544 23.896-8.419 42.378-11.623 53.008h18.482l3.232-34.866c.369-4.11 3.997-7.115 8.107-6.747 4.11.369 7.144 3.997 6.774 8.107l-3.09 33.506h72.908c-3.118-14.967-9.042-47.481-12.983-93.119-.34-4.11 2.722-7.739 6.861-8.079 4.108-.34 7.737 2.721 8.077 6.86 4.196 48.615 10.603 81.695 13.323 94.338h20.552l-5.414-45.071c-.482-4.11 2.438-7.823 6.548-8.306 4.11-.482 7.853 2.438 8.334 6.548l5.613 46.829h17.686l-2.749-22.933c-.482-4.11 2.438-7.824 6.548-8.306 4.111-.51 7.853 2.438 8.335 6.548l2.946 24.69h70.981c-1.673-11.65-7.143-22.139-15.109-30.104-9.666-9.667-22.961-15.647-37.616-15.647h-27.695c-3.826 0-6.973-2.835-7.426-6.52-1.502-6.746-2.806-13.55-3.968-20.381-1.247-7.512-2.354-15.052-3.261-22.621-.511-4.11 2.41-7.824 6.521-8.334 4.109-.511 7.851 2.41 8.361 6.52.936 7.682 1.985 15.023 3.147 21.969.851 4.96 1.729 9.78 2.664 14.372h21.656c18.794 0 35.858 7.682 48.219 20.041 10.687 10.686 17.886 24.917 19.615 40.706h12.644c7.908 0 15.08 3.232 20.268 8.419s8.419 12.387 8.419 20.268c0 7.908-3.231 15.081-8.419 20.296-5.188 5.188-12.359 8.419-20.268 8.419zm-177.621-342.089c-2.069-3.572-.822-8.136 2.749-10.177 3.572-2.069 8.136-.822 10.177 2.751l12.926 22.337c2.04 3.6.822 8.164-2.75 10.205-3.6 2.07-8.164.822-10.205-2.749zm136.291 35.434-54.424 31.436c-3.572 2.07-8.165.851-10.234-2.721s-.851-8.164 2.722-10.233l21.686-12.501c-3.998-.085-8.022-.425-12.02-1.105-16.895-2.92-30.473-11.48-39.175-26.504l-26.533-45.951-42.407 24.464c17.093 29.622 34.214 59.216 51.307 88.839l17.745-10.261c3.571-2.041 8.136-.822 10.205 2.777 2.042 3.573.822 8.136-2.749 10.177l-17.746 10.233 5.556 9.61h32.429l77.273-44.618zm-150.55 3.855-13.975-24.208-13.748 7.937 13.975 24.208z"></path></g></svg>