<!-- icon666.com - MILLIONS OF FREE VECTOR ICONS --><svg id="svg8" viewBox="0 0 135.46666 135.46667" xmlns="http://www.w3.org/2000/svg" xmlns:svg="http://www.w3.org/2000/svg"><g id="layer1" transform="translate(0 -161.533)"><path id="path23715" d="m110.54312 229.3328 15.66829 58.88478c2.46403 9.26041-5.66527 7.47135-9.42319 6.01927-3.13629-1.21189-15.66365-6.08335-15.66365-6.08335s-8.439897 4.57846-10.72079 5.79034c-4.970653 2.64102-10.03813 1.98307-12.219924-4.32945-.05728-.16574-5.412822-18.32741-10.450526-35.41644v-24.86515z" fill="#f45558" paint-order="markers fill stroke" style="fill: rgb(103, 206, 34);"></path><g transform="matrix(.265 0 0 .265 0 161.533)"><path id="rect23394" d="m94.199219 256.25-59.21875 222.55664c-9.312865 34.99998 21.412042 28.23821 35.615234 22.75 11.853691-4.58037 59.201177-22.99219 59.201177-22.99219s31.89883 17.30443 40.51953 21.88477c18.78672 9.98181 37.93939 7.49506 46.18554-16.36328.2165-.62641 20.45791-69.26894 39.49805-133.85742v-93.97852z" fill="#f45558" paint-order="markers fill stroke" style="fill: rgb(103, 206, 34);"></path><path id="path15252" d="m256 256.25v93.97852c14.57149 49.42977 23.7641 80.56681 30.22852 102.4414 18.17957-3.58516 35.33892-34.73877 52.7246-40.47265 18.42991-6.07828 53.65702 10.96612 69.30665-.50977 15.64958-11.47593 9.98293-50.19703 21.32031-65.94727 2.29353-3.18623 5.71109-6.00658 9.73437-8.63867l-21.51367-80.85156z" fill="#db375b" paint-order="markers fill stroke" style="fill: rgb(29, 124, 3);"></path><path id="path15257" d="m96.064453 256.25c-1.255643 2.92104-2.714492 5.91207-4.242187 8.93164l-11.587891 43.55274c8.428562 16.66527 44.156485 23.34168 55.128905 38.30468 11.47592 15.64959 6.15015 54.41849 21.90039 65.75586 15.75025 11.33753 50.82578-6.01694 69.3086-.10156 3.15071 1.00839 6.30184 2.86027 9.45703 5.2168 7.49756-25.41417 10.34355-35.02417 19.9707-67.68164v-93.97852z" fill="#db375b" paint-order="markers fill stroke" style="fill: rgb(29, 124, 3);"></path></g><path id="path23391" d="m101.13965 265.1675c-4.140627 3.03633-13.46112-1.47345-18.337367.13476s-9.685185 10.77793-14.819735 10.80058c-5.13455.0226-10.024204-9.10428-14.914452-10.66941-4.890246-1.56511-14.170584 3.02672-18.337836.027-4.167252-2.99968-2.75839-13.25759-5.794728-17.39821-3.036338-4.14063-13.243302-5.88061-14.851508-10.75685-1.608206-4.87625 5.561036-12.34696 5.538385-17.48151-.02265-5.13455-7.257529-12.54172-5.692408-17.43197 1.56512-4.89025 11.756335-6.72021 14.756023-10.88746 2.999687-4.16725 1.500374-14.41234 5.640998-17.44868 4.140624-3.03633 13.461115 1.47345 18.337362-.13476s9.685185-10.77793 14.819735-10.80057c5.13455-.0227 10.024204 9.10427 14.914452 10.6694 4.89025 1.56511 14.170584-3.02672 18.337839-.027 4.16725 2.99968 2.75839 13.25759 5.79473 17.39822 3.03633 4.14063 13.2433 5.8806 14.8515 10.75684 1.60821 4.87625-5.56104 12.34697-5.53838 17.48152.0226 5.13455 7.25753 12.54172 5.6924 17.43197-1.56511 4.89024-11.75633 6.7202-14.75602 10.88745-2.99968 4.16725-1.50037 14.41234-5.64099 17.44868z" fill="#ffd54f" paint-order="markers fill stroke"></path><path id="rect4225-8-0" d="m12.733103 282.00188v1.0584h2.1171v-1.0584zm5.2911 0v1.0584h2.1167v-1.0584zm5.2906 0v1.0584h2.1172v-1.0584zm5.2933 0v1.0584h2.1171v-1.0584zm5.2906 0v1.0584h2.1172v-1.0584zm5.2911 0v1.0584h2.1172v-1.0584zm5.2933 0v1.0584h2.1171v-1.0584zm5.2906 0v1.0584h2.1172v-1.0584zm5.2911 0v1.0584h2.1172v-1.0584z" fill="#0a0d33" fill-rule="evenodd" stroke-width=".265"></path><path id="path14890" d="m100.94156 219.61163a33.208237 33.208237 0 0 1 -33.208223 33.20823 33.208237 33.208237 0 0 1 -33.208238-33.20823 33.208237 33.208237 0 0 1 33.208238-33.20824 33.208237 33.208237 0 0 1 33.208223 33.20824z" fill="#2196f3" stroke-linecap="round" stroke-linejoin="round" stroke-width="2.004" paint-order="markers fill stroke" style="fill: rgb(61, 159, 20);"></path><path id="path15260" d="m330.76758 203.12109c-5.56625 10.73236-20.3371 22.33844-23.47461 32.19727-4.21837 13.2551 6.91288 39.24805-4.29102 47.49219-11.2039 8.24413-32.61938-10.71113-46.52929-10.62696-9.93685.0602-24.60475 9.88974-36.29493 12.54688-.53388 8.84052-.0395 18.86154 5.17969 22.60547 11.30283 8.10799 34.48852-11.12861 48.39844-11.21289 13.90992-.0842 37.3254 18.87108 48.5293 10.62695 11.20389-8.24413.0726-36.23708 4.29101-49.49219 4.21837-13.25514 29.48-29.66799 25.10156-42.87109-2.08254-6.27989-11.98855-9.1257-20.91015-11.26563z" fill="#2979ff" transform="matrix(.265 0 0 .265 0 161.533)" paint-order="markers fill stroke" style="fill: rgb(63, 65, 70);"></path><path id="path27653" d="m67.007812 178.62891.0098 1.05859 2.09961.0137.02344-1.05664zm-3.21875.17968-2.11914.25782.144531 1.04882 2.083985-.2539zm8.56836.0723-.125 1.05078 2.082031.2832.154297-1.04687zm-13.863281.78125-2.0625.53711.285156 1.01953 2.033203-.53128zm19.138671.16211-.265624 1.02344 2.023437.56054.298828-1.01562zm-24.263671 1.38476-1.978516.79688.410156.97656 1.947266-.78515zm29.373047.24219-.404297.97656 1.93164.82618.431641-.96485zm-34.257813 1.96094-1.855469 1.05273.53711.91211 1.826172-1.03515zm39.095703.32617-.519531.92188 1.8125 1.0625.546875-.90625zm-43.65039 2.4961-1.701172 1.2871.652343.83204 1.675782-1.26563zm48.15625.40234-.636719.8457 1.658203 1.29102.662109-.82617zm-52.304688 2.98828-1.519531 1.49805.755859.74023 1.496094-1.47266zm56.394531.4707-.740234.75586 1.474609 1.49414.765625-.73047zm-60.068359 3.42969-1.310547 1.68164.845703.63672 1.291016-1.65625zm63.677734.53125-.833984.65234 1.267578 1.67383.85352-.625zm-66.810547 3.8125-1.083984 1.83594.917969.52539 1.070312-1.80859zm69.873051.58203-.91211.53711 1.03711 1.82617.92968-.50781zm-72.41016 4.13281-.839844 1.96094.978516.4043.826172-1.93164zm74.87695.62696-.97656.4082.78711 1.94922.98828-.38086zm-76.781247 4.38281-.572265 2.05664 1.02539.26563.560547-2.02149zm78.593747.6543-1.01953.28515.5332 2.03125 1.02735-.2539zm-79.820309 4.55859-.302735 2.10938 1.048828.13867.298828-2.08008zm80.964839.67774-1.04882.14453.2539 2.08398 1.05274-.10937zm-81.505855 4.65624-.01563 2.13282 1.056641-.01.01758-2.09961zm81.953125.6836-1.05859.006-.0254 2.35156 1.05664.0332zm-80.742188 4.55859-1.052734.10938.25586 2.11914 1.048828-.14453zm79.419918.91211-.30273 2.07813 1.04492.16992.30664-2.11133zm-78.593746 4.24219-1.029296.24414.523437 2.06641 1.023437-.27344zm77.646486.89258-.56641 2.02343 1.01563.29883.57422-2.05468zm-76.152345 4.10742-.988281.37695.794922 1.98047.976562-.41015zm74.544925.85547-.83008 1.92969.96484.43359.84375-1.96094zm-72.410159 3.9043-.929688.50781 1.050781 1.85547.91211-.53516zm70.164059.80664-1.07617 1.80273.89844.55664 1.0957-1.83008zm-67.423825 3.63476-.853516.625 1.285157 1.70313.833984-.65235zm64.583984.74219-1.304687 1.64648.818359.66993 1.324219-1.66993zm-61.289062 3.30469-.763672.73242 1.494141 1.51953.742187-.75391zm57.898437.66601-1.505859 1.46485.726563.76953 1.527343-1.48633zm-54.103515 2.91992-.664063.82227 1.675782 1.31641.642578-.8418zm50.224609.57618-1.677734 1.26562.626953.85156 1.701172-1.2832zm-45.99414 2.48437-.556641.90039 1.832031 1.0918.529297-.91602zm41.699218.48047-1.828125 1.0332.50586.92774 1.857421-1.04883zm-37.109375 2.00391-.433593.96484 1.960937.8418.400391-.97852zm32.464844.375-1.947266.78125.376953.98828 1.980469-.79493zm-27.59375 1.48828-.298828 1.01562 2.054687.57227.267578-1.02539zm22.681641.26172-2.03711.51367.242188 1.03125 2.068359-.52149zm-17.601563.9414-.167969 1.04492 2.111328.30469.136719-1.04883zm12.492188.14258-2.083985.25.109375 1.05273 2.119141-.2539zm-7.304688.39453-.02148 1.05859 2.130859.0195-.0078-1.0586z" fill="#0a0d33" font-variant-ligatures="normal" font-variant-position="normal" font-variant-caps="normal" font-variant-numeric="normal" font-variant-alternates="normal" font-variant-east-asian="normal" font-feature-settings="normal" font-variation-settings="normal" text-indent="0" text-align="start" text-decoration-line="none" text-decoration-style="solid" text-decoration-color="#000000" text-transform="none" text-orientation="mixed" white-space="normal" shape-padding="0" shape-margin="0" inline-size="0" isolation="auto" mix-blend-mode="normal" solid-color="#000000" solid-opacity="1" vector-effect="none" paint-order="markers fill stroke"></path><path id="path14943" d="m78.217476 282.00188v1.0584h2.1171v-1.0584zm5.2911 0v1.0584h2.1167v-1.0584zm5.2906 0v1.0584h2.1172v-1.0584zm5.2933 0v1.0584h2.1171v-1.0584zm5.2906 0v1.0584h2.117204v-1.0584zm5.291104 0v1.0584h2.1172v-1.0584zm5.2933 0v1.0584h2.1171v-1.0584zm5.2906 0v1.0584h2.1172v-1.0584zm5.2911 0v1.0584h2.1172v-1.0584z" fill="#0a0d33" fill-rule="evenodd" stroke-width=".265"></path><path id="path23807" d="m80.698439 236.88956c-2.964365 2.18126-9.159713-2.83394-12.840045-2.81167-3.680334.0223-9.814547 5.11206-12.805087 2.96682-2.990539-2.14523-.135273-9.58713-1.293734-13.08046-1.158462-3.49333-7.894713-7.75447-6.778605-11.26157 1.116109-3.50708 9.076109-3.09124 12.040474-5.27249 2.964364-2.18126 4.935345-9.90459 8.615678-9.92686 3.680333-.0223 5.744617 7.67665 8.735156 9.82188 2.99054 2.14524 10.944925 1.63312 12.103387 5.12644 1.158461 3.49332-5.52574 7.83567-6.641849 11.34276-1.11611 3.50708 1.828989 10.91389-1.135375 13.09515z" fill="#d9defb" paint-order="markers fill stroke"></path><path id="path27681" d="m255.03711 2c-12.0787.053253-21.84324 9.832684-31.20313 19.355469-9.35988 9.522784-18.60413 19.212648-26.04296 21.666015-7.43883 2.45333-20.62784.166302-33.81641-1.919922-13.18858-2.086223-26.85906-4.138833-36.59961 3.003907-9.74055 7.142815-11.89614 20.796246-13.87109 34.001953s-3.75789 26.476748-8.33399 32.833988-16.590297 12.25797-28.486326 18.32226c-11.896025 6.06425-24.163861 12.43548-27.845703 23.93945-3.681846 11.50398 2.605186 23.8176 8.769531 35.66211 6.164341 11.84448 12.522088 23.6281 12.55664 31.46094.03456 7.83288-6.215791 19.67386-12.27539 31.57227-6.059599 11.8984-12.242182 24.26527-8.458984 35.73633 3.588889 10.88184 14.867019 17.07243 26.216796 22.76757l-44.53125 167.375c-6.795599 25.36152 6.915471 30.27188 11.914063 31.47657 9.997175 2.40933 21.518802-1.0703 29.009765-3.96485 11.529721-4.45519 54.886128-21.30965 57.490238-22.32226 2.38481 1.29362 30.56515 16.58174 38.91015 21.01562 10.01229 5.31972 20.52686 7.56172 30.0293 4.82031 9.50244-2.74144 17.68916-10.64806 21.97656-23.93945.0687-.22885 12.20413-41.31052 16.61328-56.26367 6.08557 4.89934 12.5829 8.45408 19.89844 8.42187 6.69979-.0296 12.68728-3.05834 18.29102-7.37109 4.354 14.76164 15.78644 53.46544 16.02734 54.27539 4.30795 14.34244 12.75338 22.13555 22.25586 24.87695 9.50249 2.74141 20.017.49945 30.0293-4.82031 8.345-4.43388 36.52535-19.722 38.91015-21.01562 2.60414 1.01261 45.96052 17.86707 57.49024 22.32226 7.49095 2.89455 19.00671 6.37418 29.0039 3.96485 4.99858-1.20469 18.77327-5.72721 11.92188-31.47657l-44.81445-168.41406c11.65602-5.9509 23.48583-12.28994 27.08984-23.55078 3.68186-11.50401-2.60516-23.81764-8.76953-35.66211s-12.52214-23.63005-12.55664-31.46289c-.0345-7.83288 6.21578-19.66605 12.27539-31.56445 6.0596-11.89841 12.24417-24.27114 8.46094-35.74219-3.7832-11.47106-16.10951-17.7382-28.0586-23.69727-11.94905-5.95906-24.01843-11.7537-28.65039-18.07031-4.63204-6.31665-6.52973-19.566151-8.62109-32.753905-2.0914-13.187754-4.36283-26.826283-14.16602-33.882813-9.80319-7.056642-23.45924-4.882169-36.6289-2.679687s-26.34254 4.602447-33.80274 2.214844c-7.46019-2.387641-16.78302-11.989826-26.22656-21.429688-9.44354-9.439861-19.30215-19.1354357-31.38086-19.082031zm.0371 8.001953c7.32746-.03239 16.42045 7.469014 25.68945 16.734375 9.26901 9.265399 18.42267 19.86672 29.44531 23.394531 11.02264 3.527736 24.63235.212558 37.5586-1.949218 12.92625-2.161777 24.68182-2.997679 30.6289 1.283203 5.94705 4.280844 8.88672 15.698565 10.93946 28.642578 2.05273 12.944012 3.23228 26.905308 10.07617 36.238278 6.84393 9.33302 19.79913 14.64912 31.52734 20.49805 11.72826 5.84893 21.73426 12.08805 24.0293 19.04687 2.29508 6.95887-2.03285 17.9211-7.98047 29.59961-5.94758 11.67852-13.20539 23.66109-13.1543 35.23438.0509 11.57333 7.41439 23.48967 13.46485 35.11523 6.05042 11.6256 10.47773 22.54853 8.24414 29.52735-2.23355 6.97882-12.18125 13.30757-23.85742 19.25976-11.67617 5.95215-24.59026 11.38045-31.35157 20.77344-6.76131 9.393-7.81155 23.36451-9.75 36.32617-1.93844 12.96163-4.78038 24.40517-10.68945 28.73828-5.90905 4.33316-17.67626 3.5965-30.62109 1.54883-12.94484-2.04767-26.58119-5.24018-37.57227-1.61523-10.99107 3.6249-20.05334 14.30358-29.24023 23.65039-9.1869 9.34677-18.20768 16.93839-25.53516 16.9707-7.32751.0323-16.41849-7.47683-25.6875-16.74219-9.26901-9.26532-18.42465-19.86476-29.44726-23.39257-11.02263-3.52778-24.63235-.21256-37.5586 1.94921-12.92625 2.16174-24.6877 2.99573-30.63476-1.28515-5.94706-4.28081-8.88672-15.69661-10.93946-28.64063-2.05273-12.94401-3.22639-26.9053-10.07031-36.23828-6.84391-9.33301-19.799114-14.65107-31.527343-20.5-11.728233-5.84897-21.732286-12.07828-24.027344-19.03711-2.295061-6.95886 2.030908-17.92308 7.978516-29.60156 5.947608-11.67851 13.20535-23.6689 13.154297-35.24219-.05105-11.57329-7.412476-23.48963-13.462891-35.11523-6.050419-11.62556-10.479666-22.54849-8.246094-29.52735 2.233573-6.97882 12.181256-13.30757 23.857422-19.25976s24.590257-11.37849 31.351567-20.77149c6.7613-9.39299 7.8135-23.364542 9.75195-36.326168 1.93845-12.961662 4.77844-24.397353 10.6875-28.730468 5.90905-4.333153 17.67626-3.606266 30.62109-1.558594 12.94483 2.047635 26.58314 5.242095 37.57422 1.617188 10.99108-3.624908 20.05139-14.305573 29.23828-23.652344 9.1869-9.346772 18.20768-16.930576 25.53516-16.962891zm.92188 79.998047c-71.47982 0-129.50782 58.02799-129.50781 129.50781.00002 71.47983 58.028 129.51563 129.50781 129.51563 71.47979-.00004 129.51563-58.03584 129.51563-129.51563 0-71.47982-58.03582-129.507772-129.51563-129.50781zm0 7.994141c67.15628 0 121.51368 54.357399 121.51368 121.513669-.00002 67.15627-54.35741 121.51364-121.51368 121.51367-67.15628 0-121.50584-54.3574-121.50586-121.51367 0-67.15631 54.34956-121.513669 121.50586-121.513669zm-12.59375 39.892579c-8.72719 8.78199-15.35293 26.95578-22.69922 32.36133-7.57478 5.3353-28.23262 6.74707-37.65429 12.04687-14.37143 7.50955-9.56266 19.22545-7.42578 23.33399 5.63687 10.92103 20.78147 22.91121 23.76953 31.58789 1.61306 4.86414.68753 15.17531-.34766 25.06836-2.96302 28.3168 10.61475 34.95464 33.81641 24.25781 9.15331-3.89375 18.51214-8.32639 23.63672-8.35742 5.12453-.031 14.53267 4.28565 23.73242 8.06836 33.84987 14.89135 35.2088-9.33283 33.5213-24.66211-.87463-9.90853-2.20252-20.1792-.64843-25.0625 1.55408-4.8833 8.57323-12.49753 15.01367-20.07813 13.34522-14.66526 19.62037-32.88496-13.10157-39.5-9.69386-2.23007-19.87303-4.14378-24.0371-7.13086-7.72656-5.92453-13.92802-22.88215-23.08985-32.08203-4.87782-5.29527-14.91927-9.91514-24.48615.14844zm18.85354 5.52734c7.50393 7.48575 14.99014 26.85174 24.06641 32.91016 7.13876 5.12092 17.64007 6.292 26.89843 8.42187 19.75418 4.50246 23.12438 9.84876 8.79883 26.53125-6.1511 7.24003-13.87088 14.45238-16.53515 22.82422-2.66429 8.37181-.54042 18.728.29492 28.19141 1.16767 17.8567.36589 26.10698-22.50588 16.56445-8.78645-3.61274-18.04079-8.72697-26.82617-8.67383-8.78535.0533-17.97276 5.28121-26.71485 9-17.24604 6.85942-24.06742 7.94346-22.70705-16.29297.72078-9.47278 2.72045-19.85244-.0449-28.1914-2.95288-10.15146-18.8561-22.64549-24.25586-32.75977-4.15052-7.4712.92722-10.96204 3.98633-12.53515 10.83727-5.197 30.50709-6.35499 38.73242-12.71094 8.31371-5.73723 17.18822-26.85553 23.66602-33.19727 4.16605-4.03237 8.04772-5.15682 13.1465-.082zm166.5332 169.68555 44.36719 166.73828c4.89293 18.38832-2.76661 20.84091-6.06055 21.63477-6.58786 1.5877-17.53583-1.05286-24.24804-3.64649-11.83246-4.57217-59.19532-22.98633-59.19532-22.98633-1.09576-.42833-2.3245-.3526-3.35937.20704 0 0-31.94537 17.33104-40.49024 21.87109-8.77443 4.66205-17.22442 6.16442-24.05664 4.19336-6.83221-1.97106-12.86874-7.37558-16.80074-19.46485-.23899-.80349-12.19208-41.26983-17.05859-57.76953 2.12462-2.01856 4.21509-4.11666 6.2793-6.21679 9.35987-9.52279 18.59827-19.21265 26.0371-21.66602 7.43884-2.45337 20.63565-.16044 33.82422 1.92578 13.18858 2.08619 26.85713 4.13887 36.59766-3.0039 9.74056-7.14278 11.89614-20.80211 13.87109-34.00782 1.97496-13.2057 3.75207-26.47088 8.32813-32.82812 3.73002-5.18184 12.44132-10.06774 21.96484-14.98047zm-345.833982.97461c9.986027 5.01139 19.263752 9.98531 23.181642 15.32812 4.63201 6.31661 6.53166 19.57202 8.62305 32.75977s4.36087 26.82628 14.16406 33.88281c9.80318 7.05664 23.45925 4.88217 36.6289 2.67969 13.16967-2.20248 26.34255-4.60834 33.80274-2.2207 7.46021 2.38764 16.78498 11.98986 26.22851 21.42968 1.60732 1.60668 3.23316 3.20287 4.87305 4.77539-4.9355 16.73414-17.60858 59.63406-17.67383 59.85157-3.7527 10.90501-9.69517 16.57972-16.52734 18.55078s-15.29197.46869-24.06641-4.19336c-8.54486-4.54005-40.48242-21.87109-40.48242-21.87109-1.03434-.55904-2.26223-.63476-3.35742-.20704 0 0-47.362863 18.41416-59.195313 22.98633-6.712233 2.59363-17.662144 5.23419-24.25 3.64649-3.293926-.79386-10.91721-3.50946-6.060547-21.63477z" fill="#0a0d33" transform="matrix(.265 0 0 .265 0 161.533)" font-variant-ligatures="normal" font-variant-position="normal" font-variant-caps="normal" font-variant-numeric="normal" font-variant-alternates="normal" font-variant-east-asian="normal" font-feature-settings="normal" font-variation-settings="normal" text-indent="0" text-align="start" text-decoration-line="none" text-decoration-style="solid" text-decoration-color="#000000" text-transform="none" text-orientation="mixed" white-space="normal" shape-padding="0" shape-margin="0" inline-size="0" isolation="auto" mix-blend-mode="normal" solid-color="#000000" solid-opacity="1" vector-effect="none" paint-order="markers fill stroke"></path></g></svg>