<svg version="1.0" xmlns="http://www.w3.org/2000/svg" width="150.000000ptpx" height="90.000000ptpx" viewBox="0 0 150.000000 90.000000" preserveAspectRatio="xMidYMid meet" transform="rotate(0) scale(1, 1)">

<g transform="translate(0.000000,90.000000) scale(0.100000,-0.100000)" fill="#165b19" stroke="none">
<path d="M0 450 l0 -450 750 0 750 0 0 450 0 450 -337 0 -338 -1 66 -22 c152&#10;-52 259 -184 284 -348 5 -35 3 -48 -10 -59 -14 -11 -18 -11 -33 3 -11 12 -12&#10;17 -4 17 8 0 10 5 5 13 -4 6 -8 17 -8 22 0 6 -6 19 -12 30 l-13 20 -12 -20&#10;c-7 -11 -13 -24 -13 -30 0 -5 -4 -16 -8 -22 -5 -8 -3 -13 4 -13 8 0 6 -6 -4&#10;-18 -22 -24 -22 -33 0 -25 12 5 9 -3 -10 -29 -15 -19 -24 -38 -19 -43 4 -5 1&#10;-5 -6 -1 -7 5 -17 19 -22 32 -5 13 -14 24 -19 24 -10 0 -23 -31 -20 -46 5 -20&#10;-22 -64 -37 -64 -10 0 -14 3 -11 6 3 4 2 15 -4 26 -10 18 -11 19 -23 2 -7 -9&#10;-12 -27 -10 -40 1 -12 -6 -30 -17 -40 -18 -16 -19 -15 -29 11 -12 32 -20 28&#10;-29 -16 -4 -18 -12 -34 -19 -37 -9 -3 -12 14 -12 59 0 52 4 68 26 96 35 46 81&#10;73 124 73 29 1 32 2 18 11 -24 13 -82 1 -114 -23 -38 -31 -41 -13 -3 21 18 17&#10;44 31 57 31 16 0 27 9 37 33 12 29 12 32 -5 35 -28 5 -59 -15 -66 -43 -3 -14&#10;-10 -25 -14 -25 -4 0 -2 19 5 43 11 38 15 42 47 45 20 2 44 12 53 22 16 18 16&#10;19 -10 26 -14 4 -37 2 -51 -5 -21 -9 -24 -8 -24 7 0 25 30 111 41 118 5 3 6&#10;-2 3 -10 -10 -27 16 -18 28 9 14 32 5 41 -26 27 -15 -7 -30 -28 -42 -59 -10&#10;-26 -31 -70 -48 -96 l-31 -48 -5 33 c-9 59 0 99 26 108 39 15 59 83 34 120 -9&#10;13 -15 10 -40 -18 -23 -25 -30 -42 -30 -73 0 -22 -4 -38 -8 -35 -5 3 -7 18 -5&#10;33 3 18 -4 40 -19 63 -33 49 -52 46 -56 -8 -3 -39 1 -47 32 -76 33 -30 36 -37&#10;36 -87 l-1 -54 -29 34 c-16 19 -37 56 -45 81 -17 52 -55 94 -79 88 -13 -2 -14&#10;-7 -3 -27 14 -29 44 -43 34 -17 -4 10 -3 15 3 11 10 -6 40 -98 40 -122 0 -10&#10;-5 -11 -19 -3 -22 11 -64 13 -74 3 -14 -13 27 -43 59 -43 29 0 33 -4 47 -45 9&#10;-25 12 -45 6 -45 -5 0 -9 7 -9 15 0 23 -37 55 -65 55 -29 0 -30 -2 -10 -40 10&#10;-20 23 -30 38 -30 23 0 94 -56 84 -66 -3 -3 -19 4 -35 16 -33 25 -106 38 -116&#10;21 -5 -7 2 -11 19 -11 40 0 88 -24 118 -59 24 -29 27 -41 27 -102 0 -39 -4&#10;-69 -10 -69 -5 0 -10 11 -10 24 0 33 -10 57 -21 50 -5 -3 -9 -14 -9 -26 0 -19&#10;-2 -19 -22 -6 -14 9 -23 26 -23 42 -1 34 -22 57 -35 36 -5 -8 -6 -18 -4 -22 9&#10;-15 -23 -8 -36 7 -7 8 -9 15 -5 15 4 0 1 8 -6 17 -10 11 -10 14 -1 9 15 -9 15&#10;-4 0 29 -14 32 -26 32 -34 0 -5 -21 -9 -23 -26 -14 -11 6 -17 13 -14 16 3 4&#10;-2 15 -11 26 -17 20 -17 20 1 14 18 -7 18 -6 2 18 -10 16 -12 25 -5 25 8 0 9&#10;4 0 13 -6 8 -8 17 -5 20 3 3 0 15 -8 26 l-15 21 -18 -20 c-10 -11 -15 -23 -12&#10;-27 4 -3 2 -12 -4 -20 -9 -10 -8 -13 1 -13 10 0 10 -4 -1 -16 -10 -12 -10 -17&#10;0 -23 10 -6 9 -10 -4 -14 -11 -5 -14 -3 -9 5 5 8 2 9 -10 5 -9 -4 -15 -3 -11&#10;2 3 6 -2 14 -11 19 -15 8 -15 17 -6 72 31 172 157 313 315 350 18 5 -127 8&#10;-320 9 l-353 1 0 -450z m811 316 c-14 -36 -22 -33 -9 5 6 16 12 28 14 26 3 -2&#10;0 -16 -5 -31z m-71 -258 l-1 -43 -19 36 c-11 21 -22 57 -26 80 l-6 44 26 -37&#10;c19 -26 26 -49 26 -80z m86 40 c-8 -29 -22 -62 -30 -73 -15 -19 -15 -18 -16&#10;19 0 26 9 54 28 82 33 53 39 43 18 -28z m91 66 c-3 -3 -12 -4 -19 -1 -8 3 -5&#10;6 6 6 11 1 17 -2 13 -5z m-487 -334 c0 -5 -4 -10 -10 -10 -5 0 -10 5 -10 10 0&#10;6 5 10 10 10 6 0 10 -4 10 -10z m75 -16 c17 -14 21 -21 10 -15 -30 14 -61 40&#10;-50 41 6 0 24 -12 40 -26z m-10 -26 c19 -13 35 -29 35 -36 0 -14 -7 -11 -52&#10;20 -16 11 -28 24 -28 29 0 13 7 11 45 -13z m95 -28 c14 -11 21 -20 15 -20 -5&#10;0 -21 9 -35 20 -14 11 -20 20 -15 20 6 0 21 -9 35 -20z m490 -7 c0 -5 -15 -24&#10;-32 -43 -28 -29 -33 -31 -36 -16 -2 10 1 23 8 30 8 8 9 6 4 -9 -7 -20 -7 -20&#10;14 -1 12 10 21 21 20 25 -1 14 3 21 12 21 6 0 10 -3 10 -7z m-560 -44 c0 -6&#10;-13 -1 -30 11 -16 12 -30 23 -30 26 0 2 14 -2 30 -11 17 -9 30 -20 30 -26z&#10;m71 12 c13 -11 21 -23 17 -26 -9 -9 -58 21 -58 35 0 15 15 12 41 -9z m389 4&#10;c0 -2 -10 -10 -22 -16 -21 -11 -22 -11 -9 4 13 16 31 23 31 12z m-285 -32 c25&#10;-16 45 -31 45 -35 0 -4 -22 6 -50 23 -45 28 -58 39 -45 39 2 0 25 -12 50 -27z&#10;m-85 -44 c0 -5 -11 -2 -25 7 -14 9 -25 20 -25 25 0 5 11 2 25 -7 14 -9 25 -20&#10;25 -25z m130 -36 c0 -7 -22 1 -50 19 -27 17 -50 37 -50 45 0 8 17 2 50 -19 27&#10;-18 50 -38 50 -45z m149 54 c-41 -29 -92 -57 -95 -54 -6 6 89 66 95 61 2 -2 2&#10;-5 0 -7z m62 -18 c-13 -11 -27 -17 -30 -13 -3 3 5 14 18 25 13 11 27 17 30 13&#10;3 -3 -5 -14 -18 -25z m-269 -39 c18 -11 29 -20 25 -20 -11 0 -67 29 -67 35 0&#10;9 9 5 42 -15z m208 11 c0 -5 -13 -14 -30 -20 -37 -13 -39 -6 -2 13 33 18 32&#10;18 32 7z"/>
<path d="M755 868 c-4 -10 -4 -26 0 -35 6 -17 7 -17 16 0 7 11 7 23 0 35 -9&#10;16 -10 16 -16 0z"/>
<path d="M630 832 c0 -11 7 -25 15 -32 12 -10 15 -9 15 8 0 11 -7 25 -15 32&#10;-12 10 -15 9 -15 -8z"/>
<path d="M877 833 c-4 -3 -7 -15 -7 -26 0 -16 3 -17 15 -7 8 7 15 19 15 26 0&#10;15 -12 19 -23 7z"/>
<path d="M990 769 c0 -5 5 -7 10 -4 6 3 10 8 10 11 0 2 -4 4 -10 4 -5 0 -10&#10;-5 -10 -11z"/>
<path d="M470 709 c-10 -18 -9 -20 7 -17 10 2 19 11 21 21 5 24 -15 21 -28 -4z"/>
<path d="M550 716 c0 -28 41 -66 71 -66 47 0 31 50 -22 69 -41 14 -49 14 -49&#10;-3z"/>
<path d="M933 723 c-24 -5 -53 -38 -53 -60 0 -8 12 -13 29 -13 30 0 71 38 71&#10;66 0 14 -6 15 -47 7z"/>
<path d="M1032 714 c1 -9 9 -19 16 -22 9 -3 13 2 10 14 -1 9 -9 19 -16 22 -9&#10;3 -13 -2 -10 -14z"/>
<path d="M702 684 c1 -9 9 -19 16 -22 9 -3 13 2 10 14 -1 9 -9 19 -16 22 -9 3&#10;-13 -2 -10 -14z"/>
<path d="M803 685 c-3 -9 -3 -18 0 -21 9 -9 27 6 27 22 0 19 -19 18 -27 -1z"/>
<path d="M522 669 c2 -7 10 -15 17 -17 8 -3 12 1 9 9 -2 7 -10 15 -17 17 -8 3&#10;-12 -1 -9 -9z"/>
<path d="M985 669 c-4 -6 -5 -13 -2 -16 7 -7 27 6 27 18 0 12 -17 12 -25 -2z"/>
<path d="M446 634 c-4 -10 -1 -14 6 -12 15 5 23 28 10 28 -5 0 -13 -7 -16 -16z"/>
<path d="M1060 635 c0 -8 7 -15 15 -15 9 0 12 6 9 15 -4 8 -10 15 -15 15 -5 0&#10;-9 -7 -9 -15z"/>
<path d="M520 611 c0 -12 29 -35 36 -28 11 10 -5 37 -21 37 -8 0 -15 -4 -15&#10;-9z"/>
<path d="M977 613 c-10 -10 -8 -33 3 -33 5 0 14 9 20 20 8 15 8 20 -3 20 -8 0&#10;-17 -3 -20 -7z"/>
<path d="M520 542 c0 -10 38 -52 48 -52 4 0 14 4 22 10 12 7 12 12 -4 29 -18&#10;20 -66 29 -66 13z"/>
<path d="M944 529 c-15 -16 -16 -22 -5 -29 23 -13 70 15 71 43 0 16 -48 6 -66&#10;-14z"/>
<path d="M600 415 c-10 -12 -9 -15 8 -15 11 0 25 7 32 15 10 12 9 15 -8 15&#10;-11 0 -25 -7 -32 -15z"/>
<path d="M886 415 c4 -8 17 -15 31 -15 22 0 24 2 13 15 -7 8 -21 15 -31 15&#10;-12 0 -16 -5 -13 -15z"/>
<path d="M680 366 c0 -8 5 -18 10 -21 6 -3 10 3 10 14 0 12 -4 21 -10 21 -5 0&#10;-10 -6 -10 -14z"/>
<path d="M830 359 c0 -11 5 -17 10 -14 6 3 10 13 10 21 0 8 -4 14 -10 14 -5 0&#10;-10 -9 -10 -21z"/>
</g>
</svg>